<?xml version="1.0" encoding="utf-8"?>
<!-- Generator: Adobe Illustrator 18.0.0, SVG Export Plug-In . SVG Version: 6.00 Build 0)  -->
<!DOCTYPE svg PUBLIC "-//W3C//DTD SVG 1.1//EN" "http://www.w3.org/Graphics/SVG/1.1/DTD/svg11.dtd">
<svg version="1.1" id="Layer_1" xmlns="http://www.w3.org/2000/svg" xmlns:xlink="http://www.w3.org/1999/xlink" x="0px" y="0px"
	 viewBox="0 370.9 595.3 100" enable-background="new 0 370.9 595.3 100" xml:space="preserve">
<g>
	<g>
		<path fill="#FFFFFF" d="M32.7,431.6c0.7,8,6.7,9.7,9.7,9.7c5.1,0,9.7-3.9,9.7-9.2c0-6.7-5.8-8.3-11.5-10.1
			c-3.9-1.2-12.4-3.6-12.4-12.8c-0.1-8.5,7-13.2,14.3-13.2c6,0,12.9,3.3,13.7,12.5h-5.4c-0.6-3.1-2.1-7.9-8.5-7.9
			c-4.8,0-8.8,3.3-8.8,8.3c0,5.8,4.6,7.3,11.9,9.8c4.6,1.8,11.8,4.3,11.8,13.1c0,7.9-6,14.1-14.9,14.1c-8,0-14.7-5.1-15-14.3H32.7z"
			/>
		<path fill="#FFFFFF" d="M68.3,445h-5.8l20.1-48.2h5.2l19.9,48.2h-5.8l-5.7-13.5H73.8L68.3,445z M85,402.9L75.5,427h19.2L85,402.9z
			"/>
		<path fill="#FFFFFF" d="M149.7,437.1v-40.2h5.2v48.2h-5.2l-28.6-40.6l0.1,40.5H116v-48.1h5.5L149.7,437.1z"/>
		<path fill="#FFFFFF" d="M175,401.7h-11.9v-4.8h29.2v4.8h-11.9v43.5H175V401.7z"/>
		<path fill="#FFFFFF" d="M198.1,445h-5.8l20.1-48.2h5.2l19.9,48.2h-5.8l-5.7-13.5h-22.5L198.1,445z M214.7,402.9l-9.5,24.1h19.2
			L214.7,402.9z"/>
		<path fill="#FFFFFF" d="M275.6,401.7h-11.9v-4.8h29.2v4.8H281v43.5h-5.4V401.7z"/>
		<path fill="#FFFFFF" d="M300.9,396.9h12.5c7.6,0,11,0.9,13.5,2.5c3.9,2.4,6.5,7.4,6.5,12.9c0,3.3-0.9,6.7-2.8,9.4
			c-2.8,3.9-6.3,4.8-10.7,5.2l11.9,18H326l-13.5-21h1.5c3.4,0,8,0,10.7-2.5c2.5-2.5,3.6-5.4,3.6-8.8c0-3.6-1.8-7.3-4.8-9.4
			c-2.4-1.5-5.4-1.8-9.8-1.8h-7.6V445h-5.4v-48.1H300.9z"/>
		<path fill="#FFFFFF" d="M343.5,396.9h5.4v48.2h-5.4V396.9z"/>
		<path fill="#FFFFFF" d="M395.6,437.1v-40.2h5.2v48.2h-5.2L367,404.6l0.1,40.5h-5.2v-48.2h5.5L395.6,437.1z"/>
		<path fill="#FFFFFF" d="M413.9,396.9h5.4v48.2h-5.4V396.9z"/>
		<path fill="#FFFFFF" d="M432.3,396.9h14.4c6.8,0,14.1,1.5,18.9,7.3c3.9,4.3,5.8,10,5.8,16.8c0,14.6-8.3,24.1-24.4,24.1h-14.6
			L432.3,396.9L432.3,396.9L432.3,396.9z M437.7,440.2h9.5c12.4,0,18.8-7.6,18.8-19.2c0-5.7-1.5-10.6-4.6-14
			c-3.1-3.3-7.6-5.4-14.1-5.4h-9.5L437.7,440.2L437.7,440.2z"/>
		<path fill="#FFFFFF" d="M481.1,445h-5.8l20.1-48.2h5.2l19.9,48.2h-5.8l-5.7-13.5h-22.5L481.1,445z M497.8,402.9l-9.5,24.1h19.2
			L497.8,402.9z"/>
		<path fill="#FFFFFF" d="M528.9,396.9h14.4c6.8,0,14.1,1.5,18.9,7.3c3.9,4.3,5.8,10,5.8,16.8c0,14.6-8.3,24.1-24.4,24.1H529v-48.2
			L528.9,396.9L528.9,396.9z M534.3,440.2h9.5c12.4,0,18.8-7.6,18.8-19.2c0-5.7-1.5-10.6-4.6-14c-3.1-3.3-7.6-5.4-14.1-5.4h-9.5
			v38.6H534.3z"/>
	</g>
	<rect x="8.5" y="377.3" fill="none" stroke="#FFFFFF" stroke-width="3.6307" stroke-miterlimit="10" width="578.2" height="87.4"/>
</g>
</svg>
