<?xml version="1.0" encoding="utf-8"?>
<!-- Generator: Adobe Illustrator 18.0.0, SVG Export Plug-In . SVG Version: 6.00 Build 0)  -->
<!DOCTYPE svg PUBLIC "-//W3C//DTD SVG 1.1//EN" "http://www.w3.org/Graphics/SVG/1.1/DTD/svg11.dtd">
<svg version="1.1" id="Layer_1" xmlns="http://www.w3.org/2000/svg" xmlns:xlink="http://www.w3.org/1999/xlink" x="0px" y="0px"
	 viewBox="0 0 400 69.9" enable-background="new 0 0 400 69.9" xml:space="preserve">
<g>
	<g>
		<path d="M22,42.1c0.5,5.4,4.5,6.5,6.5,6.5c3.4,0,6.5-2.6,6.5-6.2c0-4.5-3.9-5.6-7.7-6.8c-2.6-0.8-8.3-2.4-8.3-8.6
			c-0.1-5.7,4.7-8.9,9.6-8.9c4,0,8.7,2.2,9.2,8.4h-3.6c-0.4-2.1-1.4-5.3-5.7-5.3c-3.2,0-5.9,2.2-5.9,5.6c0,3.9,3.1,4.9,8,6.6
			c3.1,1.2,7.9,2.9,7.9,8.8c0,5.3-4,9.5-10,9.5c-5.4,0-9.9-3.4-10.1-9.6H22z"/>
		<path d="M45.9,51.1H42l13.5-32.4H59l13.4,32.4h-3.9L64.7,42H49.6L45.9,51.1z M57.1,22.8l-6.4,16.2h12.9L57.1,22.8z"/>
		<path d="M100.6,45.8l0-27h3.5v32.4h-3.5L81.4,23.9l0.1,27.2h-3.5V18.8h3.7L100.6,45.8z"/>
		<path d="M117.6,22h-8v-3.2h19.6V22h-8v29.2h-3.6V22z"/>
		<path d="M133.1,51.1h-3.9l13.5-32.4h3.5l13.4,32.4h-3.9l-3.8-9.1h-15.1L133.1,51.1z M144.3,22.8l-6.4,16.2h12.9L144.3,22.8z"/>
		<path d="M185.2,22h-8v-3.2h19.6V22h-8v29.2h-3.6V22z"/>
		<path d="M202.2,18.8h8.4c5.1,0,7.4,0.6,9.1,1.7c2.6,1.6,4.4,5,4.4,8.7c0,2.2-0.6,4.5-1.9,6.3c-1.9,2.6-4.2,3.2-7.2,3.5l8,12.1
			h-3.9L210,37h1c2.3,0,5.4,0,7.2-1.7c1.7-1.7,2.4-3.6,2.4-5.9c0-2.4-1.2-4.9-3.2-6.3c-1.6-1-3.6-1.2-6.6-1.2h-5.1v29.2h-3.6V18.8z"
			/>
		<path d="M230.8,18.8h3.6v32.4h-3.6V18.8z"/>
		<path d="M265.8,45.8l0-27h3.5v32.4h-3.5l-19.2-27.2l0.1,27.2h-3.5V18.8h3.7L265.8,45.8z"/>
		<path d="M278.1,18.8h3.6v32.4h-3.6V18.8z"/>
		<path d="M290.5,18.8h9.7c4.6,0,9.5,1,12.7,4.9c2.6,2.9,3.9,6.7,3.9,11.3c0,9.8-5.6,16.2-16.4,16.2h-9.8V18.8z M294.1,47.9h6.4
			c8.3,0,12.6-5.1,12.6-12.9c0-3.8-1-7.1-3.1-9.4c-2.1-2.2-5.1-3.6-9.5-3.6h-6.4V47.9z"/>
		<path d="M323.3,51.1h-3.9l13.5-32.4h3.5l13.4,32.4h-3.9l-3.8-9.1H327L323.3,51.1z M334.5,22.8l-6.4,16.2H341L334.5,22.8z"/>
		<path d="M355.4,18.8h9.7c4.6,0,9.5,1,12.7,4.9c2.6,2.9,3.9,6.7,3.9,11.3c0,9.8-5.6,16.2-16.4,16.2h-9.8V18.8z M359,47.9h6.4
			c8.3,0,12.6-5.1,12.6-12.9c0-3.8-1-7.1-3.1-9.4c-2.1-2.2-5.1-3.6-9.5-3.6H359V47.9z"/>
	</g>
	<rect x="5.7" y="5.6" fill="none" stroke="#000000" stroke-width="3.6307" stroke-miterlimit="10" width="388.5" height="58.7"/>
</g>
</svg>
